<svg xmlns="http://www.w3.org/2000/svg" viewBox="0 0 182.61 185.77"><defs><style>.cls-1{fill:#333;}</style></defs><g id="Layer_2" data-name="Layer 2"><g id="Layer_1-2" data-name="Layer 1"><g id="Layer_2-2" data-name="Layer 2"><g id="Layer_1-2-2" data-name="Layer 1-2"><path class="cls-1" d="M0,91.92c1.39-.64,2.77-1.3,4.18-1.92,5-2.15,10.08-4.31,15.16-6.38a2.64,2.64,0,0,0,1.84-2.31c2.1-12.53,7.58-23.54,15.24-33.55,2.06-2.69,2.11-2.71.22-5.57-1.72-2.62-3.46-5.19-5.23-7.83-.23-.36-.69-.71-.63-1.36a20.82,20.82,0,0,1,3.78,2.1c2.33,1.41,4.62,2.9,6.95,4.36a2.51,2.51,0,0,0,3.35-.28A76.32,76.32,0,0,1,76.75,23.45h.15c.87-.09,1.9-.66,2.54.1s-.15,1.5-.39,2.23c-2.28,6.82-2.23,5.66-7.53,7.48C50.05,40.58,36.65,55.6,30.1,77c-1.41,4.63-1.72,9.51-2,14.34-.07,1.22-.5,1.57-1.71,1.55-7.53-.11-15.06-.12-22.59-.21-1.26,0-2.51-.23-3.76-.35Z"/><path class="cls-1" d="M150.79,33l-2.61,4c-1.45,2.27-2.88,4.55-4.38,6.79a1.78,1.78,0,0,0,0,2.28c2.55,3.81,5.28,7.49,7.64,11.44a73.22,73.22,0,0,1,8.33,21.84,3.48,3.48,0,0,0,.1.44c.28,2-.06,2.29-1.92,1.68-1-.32-2-.71-2.94-1.11a7.64,7.64,0,0,1-4.41-5.2c-5-15-13.54-27.24-27.33-35.45-8.14-4.85-16.73-8.44-26.27-9.31a33.19,33.19,0,0,0-4.78-.13c-1.3.06-1.7-.3-1.69-1.65.07-7.38,0-14.77,0-22.15V.1l.36-.1c.69,1.52,1.4,3,2.07,4.56,2.13,4.94,4.3,9.88,6.35,14.85a6.5,6.5,0,0,0,5.21,4.26,73.79,73.79,0,0,1,32,15.53c1.81,1.49,1.78,1.5,3.79.16q4.19-2.78,8.37-5.52A4.91,4.91,0,0,1,150.79,33Z"/><path class="cls-1" d="M182.61,93.46a15.89,15.89,0,0,1-3.43,1.76c-5.88,2.49-11.75,5-17.66,7.4a2,2,0,0,0-1.44,1.82c-1.53,11.29-6.17,21.28-12.62,30.54a37.63,37.63,0,0,0-3.3,5.16,2.81,2.81,0,0,0,.13,3.06c1.72,2.57,3.36,5.2,5,7.81a3.41,3.41,0,0,1,.77,1.88,5.48,5.48,0,0,1-2.29-1.1c-2.39-1.63-4.76-3.3-7.16-4.91-2-1.33-2.5-1.38-4.08,0-6.26,5.46-13.64,9-21.21,12.12a51.33,51.33,0,0,1-11.06,3.62,6.59,6.59,0,0,1-1.33.13c-1,0-1.33-.5-1-1.56,1.08-4,3.08-6.9,7.36-8.22a61.07,61.07,0,0,0,20.79-11.28,63.49,63.49,0,0,0,20.65-30.89,55.53,55.53,0,0,0,2.45-14.86c.08-2.46.13-2.46,2.56-2.6,8.38-.46,16.75-.6,25.14-.28A2.52,2.52,0,0,1,182.61,93.46Z"/><path class="cls-1" d="M90.24,185.77q-2.05-4.87-4.12-9.77c-1.54-3.62-3.06-7.26-4.88-10.76a4.18,4.18,0,0,0-3.15-2.63A66.68,66.68,0,0,1,52.36,152.2c-2.5-1.65-5-3.3-7.37-5.12a3.09,3.09,0,0,0-3.82-.25c-2.94,1.6-5.66,3.55-8.48,5.34l-1.58,1c-.25-.69.18-1.1.44-1.51,1.67-2.66,3.38-5.3,5-8s1.62-3-.24-5.41A77.19,77.19,0,0,1,28.86,127a73.24,73.24,0,0,1-7.32-20.49c-.15-.87-.63-2,0-2.56s1.53.42,2.33.66c4.11,1.27,6.37,3.9,7.51,8.2,2.4,9,7.78,16.41,13.91,23.29C54,145.84,65,151.49,77.5,154.52a112.06,112.06,0,0,0,11.38,1.75c1.23.17,1.73.54,1.72,1.93-.08,9.18,0,18.36,0,27.54Z"/><path class="cls-1" d="M90.36,38.42C62.51,37.25,35.84,62.61,36.12,93.15c.27,29.35,23.56,54.63,54.34,54.79,28.65.15,55.23-23.31,54.72-55.23C146.08,63.84,119.28,37.06,90.36,38.42ZM60.55,114.54a1.28,1.28,0,0,1-1.55.14c-.47-.37-.14-.93,0-1.39.17-.68.38-1.34.55-2,.38-1.54-.13-2.12-1.69-1.76-1.79.42-3.53,1-5.31,1.48-.39.11-.89.53-1.21,0s0-.88.31-1.23c3.07-4.15,6.42-7.93,11.92-8.79a10.88,10.88,0,0,1,1.61-.19c1.61,0,2.24.66,2.16,2.29,0,.54-.07,1.09-.1,1.45C67.57,109.75,63.76,112,60.55,114.54Zm34.5-17.49a7.76,7.76,0,0,1-1.41,3.42c-2.1,3.39-4.88,6.3-7,9.72-.5.85-.93.58-1.22-.15a16,16,0,0,1-.89-4.38c-.35-3.57-.19-7.16-.26-11.19a114.81,114.81,0,0,1-8.58,8c-.5.41-1,.83-1.51,1.22-.27.21-.58.56-.91.29s-.16-.65-.07-1c.19-.72.46-1.43.59-2.16.08-.44.85-1.36-.6-1.15-.51.08-.35-.52-.24-.8a14.46,14.46,0,0,1,1.1-2.44A113.13,113.13,0,0,1,90.8,75.12,7,7,0,0,1,93,73.54a2.29,2.29,0,0,1-.41,1.86c-.57,1.11-1.2,2.19-1.73,3.31-.29.61-.63,1.22.07,1.9.46.43.16,1.14,0,1.72a1.9,1.9,0,0,0,.75,2.11,3.35,3.35,0,0,1,1.46,3.13c0,2.44-.18,4.88-.22,7.32,0,.83-.35,2.15,1.41,1.25C95.1,95.77,95.09,96.59,95.05,97.05Zm18.58,7.31a45.93,45.93,0,0,1-5.74,9.31,2.36,2.36,0,0,1-.55-1.89V106.1c0-.46.16-1.13-.42-1.32s-.93.3-1.3.61c-1.25,1.07-2.46,2.19-3.7,3.27-.36.31-.73.85-1.25.61s-.28-.8-.32-1.23a15,15,0,0,1,0-1.64c.06-1.87-.08-2-2.09-1.45A185.37,185.37,0,0,1,111.47,90.7a13.48,13.48,0,0,1-.73,4.36,24.48,24.48,0,0,0-1,6.19c.05,2,.47,2.24,2.33,1.49.64-.26,1.41-1.08,2-.45S114,103.7,113.63,104.36Zm24.23-1.8c-.54,2.93-1.44,3.29-3.87,1.59a110.64,110.64,0,0,1-9.76-7.92c-3.1-2.73-6.13-5.56-9.22-8.31a8,8,0,0,0-3.66-1.9c-2-.44-3.35-2-4.68-3.34-3.45-3.61-6.75-7.35-10.2-11-2.25-2.34-3.63-2.31-6-.19-2.82,2.51-5,5.59-7.36,8.45a55.33,55.33,0,0,1-8.34,8.35,15.42,15.42,0,0,1-7.49,3.17,8.54,8.54,0,0,0-5.15,2.76q-6,6.19-12,12.3c-.94,1-2,1.79-3,2.68s-1.44.93-1.85-.45c-2.17-7.29-3.41-14.66-2.18-22.28A48.75,48.75,0,0,1,57.78,58.1c7-6.63,15.38-10.59,24.73-12.65,5.74-1.26,11.41-.33,17.09.42,16.69,2.18,34.29,17.68,38.08,37.62a46.22,46.22,0,0,1,.84,9.82A57.25,57.25,0,0,1,137.86,102.56Z"/></g></g></g></g></svg>